<mxfile host="app.diagrams.net" modified="2023-11-24T15:03:58.087Z" agent="Mozilla/5.0 (Macintosh; Intel Mac OS X 10_15_7) AppleWebKit/605.1.15 (KHTML, like Gecko) Version/16.4 Safari/605.1.15" etag="g3SQGGB_BmW7JnFIX9dg" version="22.1.3" type="device">
  <diagram name="Page-1" id="1umGKpcSFo-szNQ7-r5Y">
    <mxGraphModel dx="1434" dy="687" grid="1" gridSize="10" guides="1" tooltips="1" connect="1" arrows="1" fold="1" page="1" pageScale="1" pageWidth="827" pageHeight="1169" math="0" shadow="0">
      <root>
        <mxCell id="0" />
        <mxCell id="1" parent="0" />
        <mxCell id="pAjH6qu7-ys-51wDJJIY-1" value="&lt;i&gt;User List&lt;/i&gt;" style="rounded=0;whiteSpace=wrap;html=1;" vertex="1" parent="1">
          <mxGeometry x="160" y="40" width="120" height="60" as="geometry" />
        </mxCell>
        <mxCell id="pAjH6qu7-ys-51wDJJIY-9" value="" style="edgeStyle=orthogonalEdgeStyle;rounded=0;orthogonalLoop=1;jettySize=auto;html=1;" edge="1" parent="1">
          <mxGeometry relative="1" as="geometry">
            <mxPoint x="390" y="110" as="sourcePoint" />
            <mxPoint x="390" y="110" as="targetPoint" />
          </mxGeometry>
        </mxCell>
        <mxCell id="pAjH6qu7-ys-51wDJJIY-74" style="edgeStyle=orthogonalEdgeStyle;rounded=0;orthogonalLoop=1;jettySize=auto;html=1;exitX=0.5;exitY=0;exitDx=0;exitDy=0;entryX=0.5;entryY=1;entryDx=0;entryDy=0;" edge="1" parent="1" source="pAjH6qu7-ys-51wDJJIY-11" target="pAjH6qu7-ys-51wDJJIY-1">
          <mxGeometry relative="1" as="geometry" />
        </mxCell>
        <mxCell id="pAjH6qu7-ys-51wDJJIY-11" value="AddressBook" style="rounded=0;whiteSpace=wrap;html=1;" vertex="1" parent="1">
          <mxGeometry x="160" y="150" width="120" height="60" as="geometry" />
        </mxCell>
        <mxCell id="pAjH6qu7-ys-51wDJJIY-12" value="+ data" style="whiteSpace=wrap;html=1;rounded=0;" vertex="1" parent="1">
          <mxGeometry x="160" y="210" width="120" height="20" as="geometry" />
        </mxCell>
        <mxCell id="pAjH6qu7-ys-51wDJJIY-13" value="def load()" style="whiteSpace=wrap;html=1;rounded=0;" vertex="1" parent="1">
          <mxGeometry x="160" y="270" width="120" height="20" as="geometry" />
        </mxCell>
        <mxCell id="pAjH6qu7-ys-51wDJJIY-15" value="def save ()" style="whiteSpace=wrap;html=1;rounded=0;" vertex="1" parent="1">
          <mxGeometry x="160" y="250" width="120" height="20" as="geometry" />
        </mxCell>
        <mxCell id="pAjH6qu7-ys-51wDJJIY-16" value="" style="edgeStyle=orthogonalEdgeStyle;rounded=0;orthogonalLoop=1;jettySize=auto;html=1;" edge="1" parent="1">
          <mxGeometry relative="1" as="geometry">
            <mxPoint x="230" y="240" as="sourcePoint" />
            <mxPoint x="230" y="240" as="targetPoint" />
          </mxGeometry>
        </mxCell>
        <mxCell id="pAjH6qu7-ys-51wDJJIY-17" value="" style="edgeStyle=orthogonalEdgeStyle;rounded=0;orthogonalLoop=1;jettySize=auto;html=1;" edge="1" parent="1" source="pAjH6qu7-ys-51wDJJIY-18" target="pAjH6qu7-ys-51wDJJIY-19">
          <mxGeometry relative="1" as="geometry" />
        </mxCell>
        <mxCell id="pAjH6qu7-ys-51wDJJIY-18" value="Record" style="rounded=0;whiteSpace=wrap;html=1;" vertex="1" parent="1">
          <mxGeometry x="320" y="40" width="120" height="60" as="geometry" />
        </mxCell>
        <mxCell id="pAjH6qu7-ys-51wDJJIY-19" value="+name" style="whiteSpace=wrap;html=1;rounded=0;" vertex="1" parent="1">
          <mxGeometry x="320" y="100" width="120" height="20" as="geometry" />
        </mxCell>
        <mxCell id="pAjH6qu7-ys-51wDJJIY-20" value="+ email" style="whiteSpace=wrap;html=1;rounded=0;" vertex="1" parent="1">
          <mxGeometry x="320" y="160" width="120" height="20" as="geometry" />
        </mxCell>
        <mxCell id="pAjH6qu7-ys-51wDJJIY-21" value="&lt;span style=&quot;caret-color: rgb(0, 0, 0); color: rgb(0, 0, 0); font-family: Helvetica; font-size: 12px; font-style: normal; font-variant-caps: normal; font-weight: 400; letter-spacing: normal; text-align: center; text-indent: 0px; text-transform: none; word-spacing: 0px; -webkit-text-stroke-width: 0px; background-color: rgb(251, 251, 251); text-decoration: none; float: none; display: inline !important;&quot;&gt;+phones&lt;/span&gt;" style="whiteSpace=wrap;html=1;rounded=0;" vertex="1" parent="1">
          <mxGeometry x="320" y="120" width="120" height="20" as="geometry" />
        </mxCell>
        <mxCell id="pAjH6qu7-ys-51wDJJIY-22" value="&lt;span style=&quot;caret-color: rgb(0, 0, 0); color: rgb(0, 0, 0); font-family: Helvetica; font-size: 12px; font-style: normal; font-variant-caps: normal; font-weight: 400; letter-spacing: normal; text-align: center; text-indent: 0px; text-transform: none; word-spacing: 0px; -webkit-text-stroke-width: 0px; background-color: rgb(251, 251, 251); text-decoration: none; float: none; display: inline !important;&quot;&gt;+birthday&lt;/span&gt;" style="whiteSpace=wrap;html=1;rounded=0;" vertex="1" parent="1">
          <mxGeometry x="320" y="140" width="120" height="20" as="geometry" />
        </mxCell>
        <mxCell id="pAjH6qu7-ys-51wDJJIY-23" value="" style="edgeStyle=orthogonalEdgeStyle;rounded=0;orthogonalLoop=1;jettySize=auto;html=1;" edge="1" parent="1">
          <mxGeometry relative="1" as="geometry">
            <mxPoint x="390" y="110" as="sourcePoint" />
            <mxPoint x="390" y="110" as="targetPoint" />
          </mxGeometry>
        </mxCell>
        <mxCell id="pAjH6qu7-ys-51wDJJIY-24" value="def search()" style="whiteSpace=wrap;html=1;rounded=0;" vertex="1" parent="1">
          <mxGeometry x="160" y="290" width="120" height="20" as="geometry" />
        </mxCell>
        <mxCell id="pAjH6qu7-ys-51wDJJIY-32" value="def remove()" style="whiteSpace=wrap;html=1;rounded=0;" vertex="1" parent="1">
          <mxGeometry x="160" y="310" width="120" height="20" as="geometry" />
        </mxCell>
        <mxCell id="pAjH6qu7-ys-51wDJJIY-33" value="def congratulate()" style="whiteSpace=wrap;html=1;rounded=0;" vertex="1" parent="1">
          <mxGeometry x="160" y="330" width="120" height="20" as="geometry" />
        </mxCell>
        <mxCell id="pAjH6qu7-ys-51wDJJIY-34" value="def __get_current_week()" style="whiteSpace=wrap;html=1;rounded=0;" vertex="1" parent="1">
          <mxGeometry x="160" y="350" width="120" height="40" as="geometry" />
        </mxCell>
        <mxCell id="pAjH6qu7-ys-51wDJJIY-36" value="+ counter" style="whiteSpace=wrap;html=1;rounded=0;" vertex="1" parent="1">
          <mxGeometry x="160" y="230" width="120" height="20" as="geometry" />
        </mxCell>
        <mxCell id="pAjH6qu7-ys-51wDJJIY-37" value="&lt;span style=&quot;caret-color: rgb(0, 0, 0); color: rgb(0, 0, 0); font-family: Helvetica; font-size: 12px; font-style: normal; font-variant-caps: normal; font-weight: 400; letter-spacing: normal; text-align: center; text-indent: 0px; text-transform: none; word-spacing: 0px; -webkit-text-stroke-width: 0px; background-color: rgb(251, 251, 251); text-decoration: none; float: none; display: inline !important;&quot;&gt;+ status&lt;/span&gt;" style="whiteSpace=wrap;html=1;rounded=0;" vertex="1" parent="1">
          <mxGeometry x="320" y="180" width="120" height="20" as="geometry" />
        </mxCell>
        <mxCell id="pAjH6qu7-ys-51wDJJIY-38" value="&lt;span style=&quot;caret-color: rgb(0, 0, 0); color: rgb(0, 0, 0); font-family: Helvetica; font-size: 12px; font-style: normal; font-variant-caps: normal; font-weight: 400; letter-spacing: normal; text-align: center; text-indent: 0px; text-transform: none; word-spacing: 0px; -webkit-text-stroke-width: 0px; background-color: rgb(251, 251, 251); text-decoration: none; float: none; display: inline !important;&quot;&gt;+ note&lt;/span&gt;" style="whiteSpace=wrap;html=1;rounded=0;" vertex="1" parent="1">
          <mxGeometry x="320" y="200" width="120" height="20" as="geometry" />
        </mxCell>
        <mxCell id="pAjH6qu7-ys-51wDJJIY-40" value="&lt;span style=&quot;caret-color: rgb(0, 0, 0); color: rgb(0, 0, 0); font-family: Helvetica; font-size: 12px; font-style: normal; font-variant-caps: normal; font-weight: 400; letter-spacing: normal; text-align: center; text-indent: 0px; text-transform: none; word-spacing: 0px; -webkit-text-stroke-width: 0px; background-color: rgb(251, 251, 251); text-decoration: none; float: none; display: inline !important;&quot;&gt;def days_to_birthday()&lt;/span&gt;" style="whiteSpace=wrap;html=1;rounded=0;" vertex="1" parent="1">
          <mxGeometry x="320" y="220" width="120" height="40" as="geometry" />
        </mxCell>
        <mxCell id="pAjH6qu7-ys-51wDJJIY-43" value="" style="edgeStyle=orthogonalEdgeStyle;rounded=0;orthogonalLoop=1;jettySize=auto;html=1;" edge="1" parent="1">
          <mxGeometry relative="1" as="geometry">
            <mxPoint x="424" y="370" as="sourcePoint" />
            <mxPoint x="424" y="370" as="targetPoint" />
          </mxGeometry>
        </mxCell>
        <mxCell id="pAjH6qu7-ys-51wDJJIY-45" value="&lt;i&gt;Field&lt;/i&gt;" style="rounded=0;whiteSpace=wrap;html=1;" vertex="1" parent="1">
          <mxGeometry x="354" y="420" width="120" height="60" as="geometry" />
        </mxCell>
        <mxCell id="pAjH6qu7-ys-51wDJJIY-60" style="edgeStyle=orthogonalEdgeStyle;rounded=0;orthogonalLoop=1;jettySize=auto;html=1;exitX=0.5;exitY=0;exitDx=0;exitDy=0;entryX=0;entryY=0.5;entryDx=0;entryDy=0;" edge="1" parent="1" source="pAjH6qu7-ys-51wDJJIY-54" target="pAjH6qu7-ys-51wDJJIY-45">
          <mxGeometry relative="1" as="geometry" />
        </mxCell>
        <mxCell id="pAjH6qu7-ys-51wDJJIY-54" value="Name" style="rounded=0;whiteSpace=wrap;html=1;" vertex="1" parent="1">
          <mxGeometry x="10" y="570" width="120" height="60" as="geometry" />
        </mxCell>
        <mxCell id="pAjH6qu7-ys-51wDJJIY-61" style="edgeStyle=orthogonalEdgeStyle;rounded=0;orthogonalLoop=1;jettySize=auto;html=1;exitX=0.5;exitY=0;exitDx=0;exitDy=0;entryX=0;entryY=0.75;entryDx=0;entryDy=0;" edge="1" parent="1" source="pAjH6qu7-ys-51wDJJIY-55" target="pAjH6qu7-ys-51wDJJIY-45">
          <mxGeometry relative="1" as="geometry">
            <mxPoint x="380" y="490" as="targetPoint" />
          </mxGeometry>
        </mxCell>
        <mxCell id="pAjH6qu7-ys-51wDJJIY-55" value="Phone" style="rounded=0;whiteSpace=wrap;html=1;" vertex="1" parent="1">
          <mxGeometry x="150" y="570" width="120" height="60" as="geometry" />
        </mxCell>
        <mxCell id="pAjH6qu7-ys-51wDJJIY-62" style="edgeStyle=orthogonalEdgeStyle;rounded=0;orthogonalLoop=1;jettySize=auto;html=1;exitX=0.5;exitY=0;exitDx=0;exitDy=0;entryX=0.25;entryY=1;entryDx=0;entryDy=0;" edge="1" parent="1" source="pAjH6qu7-ys-51wDJJIY-56" target="pAjH6qu7-ys-51wDJJIY-45">
          <mxGeometry relative="1" as="geometry">
            <mxPoint x="370" y="490" as="targetPoint" />
          </mxGeometry>
        </mxCell>
        <mxCell id="pAjH6qu7-ys-51wDJJIY-56" value="Email" style="rounded=0;whiteSpace=wrap;html=1;" vertex="1" parent="1">
          <mxGeometry x="280" y="570" width="120" height="60" as="geometry" />
        </mxCell>
        <mxCell id="pAjH6qu7-ys-51wDJJIY-65" style="edgeStyle=orthogonalEdgeStyle;rounded=0;orthogonalLoop=1;jettySize=auto;html=1;exitX=0.5;exitY=0;exitDx=0;exitDy=0;entryX=1;entryY=0.25;entryDx=0;entryDy=0;" edge="1" parent="1" source="pAjH6qu7-ys-51wDJJIY-57" target="pAjH6qu7-ys-51wDJJIY-45">
          <mxGeometry relative="1" as="geometry" />
        </mxCell>
        <mxCell id="pAjH6qu7-ys-51wDJJIY-57" value="Note" style="rounded=0;whiteSpace=wrap;html=1;" vertex="1" parent="1">
          <mxGeometry x="690" y="570" width="120" height="60" as="geometry" />
        </mxCell>
        <mxCell id="pAjH6qu7-ys-51wDJJIY-63" style="edgeStyle=orthogonalEdgeStyle;rounded=0;orthogonalLoop=1;jettySize=auto;html=1;exitX=0.5;exitY=0;exitDx=0;exitDy=0;entryX=0.5;entryY=1;entryDx=0;entryDy=0;" edge="1" parent="1" source="pAjH6qu7-ys-51wDJJIY-58" target="pAjH6qu7-ys-51wDJJIY-45">
          <mxGeometry relative="1" as="geometry" />
        </mxCell>
        <mxCell id="pAjH6qu7-ys-51wDJJIY-58" value="Birthday" style="rounded=0;whiteSpace=wrap;html=1;" vertex="1" parent="1">
          <mxGeometry x="414" y="570" width="120" height="60" as="geometry" />
        </mxCell>
        <mxCell id="pAjH6qu7-ys-51wDJJIY-64" style="edgeStyle=orthogonalEdgeStyle;rounded=0;orthogonalLoop=1;jettySize=auto;html=1;exitX=0.5;exitY=0;exitDx=0;exitDy=0;entryX=1;entryY=0.75;entryDx=0;entryDy=0;" edge="1" parent="1" source="pAjH6qu7-ys-51wDJJIY-59" target="pAjH6qu7-ys-51wDJJIY-45">
          <mxGeometry relative="1" as="geometry" />
        </mxCell>
        <mxCell id="pAjH6qu7-ys-51wDJJIY-59" value="Status" style="rounded=0;whiteSpace=wrap;html=1;" vertex="1" parent="1">
          <mxGeometry x="550" y="570" width="120" height="60" as="geometry" />
        </mxCell>
        <mxCell id="pAjH6qu7-ys-51wDJJIY-66" value="+ value" style="whiteSpace=wrap;html=1;rounded=0;" vertex="1" parent="1">
          <mxGeometry x="10" y="630" width="120" height="20" as="geometry" />
        </mxCell>
        <mxCell id="pAjH6qu7-ys-51wDJJIY-67" value="+ value" style="whiteSpace=wrap;html=1;rounded=0;" vertex="1" parent="1">
          <mxGeometry x="150" y="630" width="120" height="20" as="geometry" />
        </mxCell>
        <mxCell id="pAjH6qu7-ys-51wDJJIY-68" value="+ value" style="whiteSpace=wrap;html=1;rounded=0;" vertex="1" parent="1">
          <mxGeometry x="280" y="630" width="120" height="20" as="geometry" />
        </mxCell>
        <mxCell id="pAjH6qu7-ys-51wDJJIY-69" value="+ value" style="whiteSpace=wrap;html=1;rounded=0;" vertex="1" parent="1">
          <mxGeometry x="413.5" y="630" width="120" height="20" as="geometry" />
        </mxCell>
        <mxCell id="pAjH6qu7-ys-51wDJJIY-70" value="+ value" style="whiteSpace=wrap;html=1;rounded=0;" vertex="1" parent="1">
          <mxGeometry x="550" y="630" width="120" height="20" as="geometry" />
        </mxCell>
        <mxCell id="pAjH6qu7-ys-51wDJJIY-71" value="+ value" style="whiteSpace=wrap;html=1;rounded=0;" vertex="1" parent="1">
          <mxGeometry x="690" y="630" width="120" height="20" as="geometry" />
        </mxCell>
        <mxCell id="pAjH6qu7-ys-51wDJJIY-72" value="Bot" style="rounded=0;whiteSpace=wrap;html=1;" vertex="1" parent="1">
          <mxGeometry x="480" y="40" width="120" height="60" as="geometry" />
        </mxCell>
        <mxCell id="pAjH6qu7-ys-51wDJJIY-73" value="def handle()" style="whiteSpace=wrap;html=1;rounded=0;" vertex="1" parent="1">
          <mxGeometry x="480" y="100" width="120" height="20" as="geometry" />
        </mxCell>
      </root>
    </mxGraphModel>
  </diagram>
</mxfile>
